<svg width="35" height="28" viewBox="0 0 35 28" fill="none" xmlns="http://www.w3.org/2000/svg">
<g filter="url(#filter0_dii_0_42)">
<path fill-rule="evenodd" clip-rule="evenodd" d="M29.0685 9.56324C28.7971 9.83463 28.422 10.0025 28.0079 10.0025C27.1795 10.0025 26.5079 9.33098 26.5079 8.50257C26.5079 8.08837 26.6758 7.71339 26.9472 7.44185L27.8865 6.50257H27V6.50008H25.5H24.1213L8.56067 22.0607C8.28922 22.3321 7.91424 22.5 7.5 22.5H5.5H2.50003C1.67162 22.5 1 21.8285 1 21.0001C1 20.1716 1.67162 19.5 2.50003 19.5H5.5H6.87875L22.4394 3.93939C22.7108 3.66798 23.0858 3.50002 23.5 3.50002H26.0001H27.8839L26.9472 2.56324C26.6758 2.29172 26.5079 1.9168 26.5079 1.50259C26.5079 0.674128 27.1795 0.002548 28.0079 0.002548C28.422 0.002548 28.7971 0.17043 29.0685 0.441922L32.5685 3.94189C32.84 4.21338 33.0079 4.5884 33.0079 5.00256C33.0079 5.41681 32.84 5.79176 32.5685 6.0632L29.0685 9.56324ZM12.3181 11.9394L6.87875 6.50008H5.5H2.50003C1.67162 6.50008 1 5.82845 1 5.00003C1 4.17162 1.67162 3.50002 2.50003 3.50002H5.00003H7.5C7.91424 3.50002 8.28922 3.66798 8.56067 3.93939L14.4394 9.81804L12.3181 11.9394ZM24.1213 19.5H25.5H27V19.4975H27.8865L26.9472 18.5582C26.6758 18.2867 26.5079 17.9117 26.5079 17.4975C26.5079 16.6691 27.1795 15.9975 28.0079 15.9975C28.422 15.9975 28.7971 16.1654 29.0685 16.4369L32.5685 19.9368C32.84 20.2083 33.0079 20.5833 33.0079 20.9975C33.0079 21.4118 32.84 21.7867 32.5685 22.0582L29.0685 25.5582C28.7971 25.8296 28.422 25.9976 28.0079 25.9976C27.1795 25.9976 26.5079 25.3259 26.5079 24.4976C26.5079 24.0833 26.6758 23.7083 26.9472 23.4369L27.8839 22.5H25.5H23.5C23.0858 22.5 22.7108 22.3321 22.4394 22.0607L16.5607 16.182L18.682 14.0607L24.1213 19.5Z" fill="black" fill-opacity="0.3"/>
<path fill-rule="evenodd" clip-rule="evenodd" d="M29.0685 9.56324C28.7971 9.83463 28.422 10.0025 28.0079 10.0025C27.1795 10.0025 26.5079 9.33098 26.5079 8.50257C26.5079 8.08837 26.6758 7.71339 26.9472 7.44185L27.8865 6.50257H27V6.50008H25.5H24.1213L8.56067 22.0607C8.28922 22.3321 7.91424 22.5 7.5 22.5H5.5H2.50003C1.67162 22.5 1 21.8285 1 21.0001C1 20.1716 1.67162 19.5 2.50003 19.5H5.5H6.87875L22.4394 3.93939C22.7108 3.66798 23.0858 3.50002 23.5 3.50002H26.0001H27.8839L26.9472 2.56324C26.6758 2.29172 26.5079 1.9168 26.5079 1.50259C26.5079 0.674128 27.1795 0.002548 28.0079 0.002548C28.422 0.002548 28.7971 0.17043 29.0685 0.441922L32.5685 3.94189C32.84 4.21338 33.0079 4.5884 33.0079 5.00256C33.0079 5.41681 32.84 5.79176 32.5685 6.0632L29.0685 9.56324ZM12.3181 11.9394L6.87875 6.50008H5.5H2.50003C1.67162 6.50008 1 5.82845 1 5.00003C1 4.17162 1.67162 3.50002 2.50003 3.50002H5.00003H7.5C7.91424 3.50002 8.28922 3.66798 8.56067 3.93939L14.4394 9.81804L12.3181 11.9394ZM24.1213 19.5H25.5H27V19.4975H27.8865L26.9472 18.5582C26.6758 18.2867 26.5079 17.9117 26.5079 17.4975C26.5079 16.6691 27.1795 15.9975 28.0079 15.9975C28.422 15.9975 28.7971 16.1654 29.0685 16.4369L32.5685 19.9368C32.84 20.2083 33.0079 20.5833 33.0079 20.9975C33.0079 21.4118 32.84 21.7867 32.5685 22.0582L29.0685 25.5582C28.7971 25.8296 28.422 25.9976 28.0079 25.9976C27.1795 25.9976 26.5079 25.3259 26.5079 24.4976C26.5079 24.0833 26.6758 23.7083 26.9472 23.4369L27.8839 22.5H25.5H23.5C23.0858 22.5 22.7108 22.3321 22.4394 22.0607L16.5607 16.182L18.682 14.0607L24.1213 19.5Z" fill="url(#paint0_linear_0_42)" style="mix-blend-mode:soft-light"/>
</g>
<defs>
<filter id="filter0_dii_0_42" x="0" y="0.00253296" width="34.0079" height="27.995" filterUnits="userSpaceOnUse" color-interpolation-filters="sRGB">
<feFlood flood-opacity="0" result="BackgroundImageFix"/>
<feColorMatrix in="SourceAlpha" type="matrix" values="0 0 0 0 0 0 0 0 0 0 0 0 0 0 0 0 0 0 127 0" result="hardAlpha"/>
<feOffset dy="1"/>
<feGaussianBlur stdDeviation="0.5"/>
<feColorMatrix type="matrix" values="0 0 0 0 1 0 0 0 0 1 0 0 0 0 1 0 0 0 0.5 0"/>
<feBlend mode="normal" in2="BackgroundImageFix" result="effect1_dropShadow_0_42"/>
<feBlend mode="normal" in="SourceGraphic" in2="effect1_dropShadow_0_42" result="shape"/>
<feColorMatrix in="SourceAlpha" type="matrix" values="0 0 0 0 0 0 0 0 0 0 0 0 0 0 0 0 0 0 127 0" result="hardAlpha"/>
<feOffset/>
<feGaussianBlur stdDeviation="6.5"/>
<feComposite in2="hardAlpha" operator="arithmetic" k2="-1" k3="1"/>
<feColorMatrix type="matrix" values="0 0 0 0 0 0 0 0 0 0 0 0 0 0 0 0 0 0 0.1 0"/>
<feBlend mode="normal" in2="shape" result="effect2_innerShadow_0_42"/>
<feColorMatrix in="SourceAlpha" type="matrix" values="0 0 0 0 0 0 0 0 0 0 0 0 0 0 0 0 0 0 127 0" result="hardAlpha"/>
<feOffset dy="2"/>
<feGaussianBlur stdDeviation="2"/>
<feComposite in2="hardAlpha" operator="arithmetic" k2="-1" k3="1"/>
<feColorMatrix type="matrix" values="0 0 0 0 0 0 0 0 0 0 0 0 0 0 0 0 0 0 1 0"/>
<feBlend mode="normal" in2="effect2_innerShadow_0_42" result="effect3_innerShadow_0_42"/>
</filter>
<linearGradient id="paint0_linear_0_42" x1="33" y1="26" x2="33" y2="0" gradientUnits="userSpaceOnUse">
<stop stop-opacity="0.07"/>
<stop offset="1" stop-opacity="0.1"/>
</linearGradient>
</defs>
</svg>
